<svg xmlns="http://www.w3.org/2000/svg" viewBox="0 0 128 128" width="128" height="128">
  <defs>
    <linearGradient id="g1" x1="0%" y1="0%" x2="100%" y2="100%">
      <stop offset="0%" style="stop-color:#7c3aed"/>
      <stop offset="100%" style="stop-color:#a78bfa"/>
    </linearGradient>
  </defs>
  <!-- Brain outline -->
  <path d="M64 16c-20 0-36 14-36 34 0 12 6 22 16 28v18c0 4 4 6 8 6h24c4 0 8-2 8-6V78c10-6 16-16 16-28 0-20-16-34-36-34z" fill="url(#g1)" opacity="0.9"/>
  <!-- Neural nodes -->
  <circle cx="48" cy="44" r="5" fill="white" opacity="0.9"/>
  <circle cx="80" cy="44" r="5" fill="white" opacity="0.9"/>
  <circle cx="64" cy="60" r="6" fill="white" opacity="0.95"/>
  <circle cx="52" cy="76" r="4" fill="white" opacity="0.85"/>
  <circle cx="76" cy="76" r="4" fill="white" opacity="0.85"/>
  <!-- Connections -->
  <line x1="48" y1="44" x2="64" y2="60" stroke="white" stroke-width="2" opacity="0.6"/>
  <line x1="80" y1="44" x2="64" y2="60" stroke="white" stroke-width="2" opacity="0.6"/>
  <line x1="52" y1="76" x2="64" y2="60" stroke="white" stroke-width="2" opacity="0.6"/>
  <line x1="76" y1="76" x2="64" y2="60" stroke="white" stroke-width="2" opacity="0.6"/>
  <line x1="48" y1="44" x2="52" y2="76" stroke="white" stroke-width="1.5" opacity="0.4"/>
  <line x1="80" y1="44" x2="76" y2="76" stroke="white" stroke-width="1.5" opacity="0.4"/>
</svg>
